<svg width="32" height="32" viewBox="0 0 32 32" fill="none" xmlns="http://www.w3.org/2000/svg">
<circle cx="16" cy="16" r="15" fill="#DD2A7B" stroke="#DD2A7B" stroke-width="2"/>
<path fill-rule="evenodd" clip-rule="evenodd" d="M13.3614 9.63838C14.0439 9.60696 14.2615 9.59998 16 9.59998C17.7384 9.59998 17.956 9.60754 18.6379 9.63838C19.3198 9.66921 19.7853 9.77801 20.1926 9.93568C20.619 10.0968 21.0059 10.3488 21.3259 10.6746C21.6518 10.994 21.9031 11.3803 22.0637 11.8074C22.2219 12.2147 22.3302 12.6801 22.3616 13.3608C22.393 14.0445 22.4 14.2621 22.4 16C22.4 17.7384 22.3924 17.956 22.3616 18.6385C22.3307 19.3192 22.2219 19.7847 22.0637 20.192C21.9031 20.6191 21.6513 21.0061 21.3259 21.3259C21.0059 21.6518 20.619 21.9031 20.1926 22.0637C19.7853 22.2219 19.3198 22.3302 18.6391 22.3616C17.956 22.393 17.7384 22.4 16 22.4C14.2615 22.4 14.0439 22.3924 13.3614 22.3616C12.6807 22.3307 12.2152 22.2219 11.808 22.0637C11.3809 21.9031 10.9939 21.6513 10.674 21.3259C10.3484 21.0063 10.0964 20.6195 9.93568 20.1926C9.77801 19.7853 9.66979 19.3198 9.63838 18.6391C9.60696 17.9555 9.59998 17.7379 9.59998 16C9.59998 14.2615 9.60754 14.0439 9.63838 13.362C9.66921 12.6801 9.77801 12.2147 9.93568 11.8074C10.0967 11.3804 10.3488 10.9936 10.6746 10.674C10.994 10.3485 11.3806 10.0965 11.8074 9.93568C12.2147 9.77801 12.6801 9.66979 13.3608 9.63838H13.3614ZM18.5862 10.7904C17.9112 10.7595 17.7088 10.7531 16 10.7531C14.2912 10.7531 14.0887 10.7595 13.4138 10.7904C12.7895 10.8189 12.4509 10.923 12.2251 11.0109C11.9267 11.1272 11.7131 11.2651 11.4891 11.4891C11.2768 11.6957 11.1134 11.9472 11.0109 12.2251C10.923 12.4509 10.8189 12.7895 10.7904 13.4138C10.7595 14.0887 10.7531 14.2912 10.7531 16C10.7531 17.7088 10.7595 17.9112 10.7904 18.5862C10.8189 19.2104 10.923 19.5491 11.0109 19.7748C11.1133 20.0523 11.2768 20.3043 11.4891 20.5108C11.6957 20.7232 11.9476 20.8867 12.2251 20.9891C12.4509 21.0769 12.7895 21.1811 13.4138 21.2096C14.0887 21.2404 14.2906 21.2468 16 21.2468C17.7094 21.2468 17.9112 21.2404 18.5862 21.2096C19.2104 21.1811 19.5491 21.0769 19.7748 20.9891C20.0733 20.8727 20.2868 20.7348 20.5108 20.5108C20.7232 20.3043 20.8867 20.0523 20.9891 19.7748C21.0769 19.5491 21.1811 19.2104 21.2096 18.5862C21.2404 17.9112 21.2468 17.7088 21.2468 16C21.2468 14.2912 21.2404 14.0887 21.2096 13.4138C21.1811 12.7895 21.0769 12.4509 20.9891 12.2251C20.8727 11.9267 20.7348 11.7131 20.5108 11.4891C20.3042 11.2768 20.0527 11.1134 19.7748 11.0109C19.5491 10.923 19.2104 10.8189 18.5862 10.7904V10.7904ZM15.1825 17.9729C15.639 18.163 16.1474 18.1886 16.6207 18.0455C17.0941 17.9024 17.503 17.5993 17.7778 17.1882C18.0525 16.777 18.176 16.2832 18.1271 15.7912C18.0783 15.2991 17.8601 14.8392 17.5098 14.4902C17.2865 14.267 17.0165 14.0962 16.7193 13.9899C16.4221 13.8836 16.105 13.8445 15.7908 13.8755C15.4767 13.9065 15.1733 14.0068 14.9026 14.1691C14.6318 14.3314 14.4004 14.5517 14.225 14.8141C14.0496 15.0766 13.9346 15.3747 13.8883 15.6869C13.8419 15.9992 13.8654 16.3178 13.9569 16.6199C14.0485 16.922 14.2059 17.2 14.4178 17.434C14.6298 17.668 14.8909 17.852 15.1825 17.9729ZM13.6739 13.6739C13.9793 13.3684 14.342 13.1261 14.7411 12.9608C15.1402 12.7954 15.568 12.7104 16 12.7104C16.432 12.7104 16.8597 12.7954 17.2589 12.9608C17.658 13.1261 18.0206 13.3684 18.3261 13.6739C18.6316 13.9793 18.8739 14.342 19.0392 14.7411C19.2045 15.1402 19.2896 15.568 19.2896 16C19.2896 16.432 19.2045 16.8597 19.0392 17.2589C18.8739 17.658 18.6316 18.0206 18.3261 18.3261C17.7092 18.943 16.8724 19.2896 16 19.2896C15.1275 19.2896 14.2908 18.943 13.6739 18.3261C13.0569 17.7092 12.7104 16.8724 12.7104 16C12.7104 15.1275 13.0569 14.2908 13.6739 13.6739V13.6739ZM20.0192 13.2003C20.0949 13.1289 20.1555 13.043 20.1974 12.9477C20.2393 12.8525 20.2617 12.7498 20.2632 12.6458C20.2647 12.5417 20.2453 12.4384 20.2062 12.342C20.1671 12.2455 20.109 12.1579 20.0354 12.0844C19.9619 12.0108 19.8743 11.9527 19.7778 11.9136C19.6814 11.8745 19.5781 11.8551 19.4741 11.8566C19.37 11.8581 19.2673 11.8805 19.1721 11.9224C19.0768 11.9643 18.9909 12.0249 18.9195 12.1006C18.7807 12.2478 18.7046 12.4434 18.7076 12.6458C18.7105 12.8481 18.7922 13.0414 18.9353 13.1845C19.0784 13.3276 19.2717 13.4093 19.4741 13.4122C19.6764 13.4152 19.872 13.3391 20.0192 13.2003V13.2003Z" fill="white"/>
</svg>
