<svg width="32" height="32" viewBox="0 0 32 32" fill="none" xmlns="http://www.w3.org/2000/svg">
<circle cx="16" cy="16" r="15" fill="#FF4500" stroke="#FF4500" stroke-width="2"/>
<path d="M24 15.8011C24 14.8872 23.2609 14.1613 22.3602 14.1613C21.9347 14.1607 21.5255 14.3245 21.2178 14.6184C20.0888 13.8118 18.543 13.2877 16.8226 13.2205L17.5752 9.699L20.0214 10.2231C20.0485 10.8414 20.5591 11.3388 21.191 11.3388C21.8361 11.3388 22.3602 10.8147 22.3602 10.1693C22.3602 9.52416 21.8361 9 21.191 9C20.734 9 20.3306 9.26882 20.1425 9.65866L17.4141 9.08068C17.3334 9.06712 17.2527 9.08068 17.1989 9.12102C17.1317 9.16136 17.0915 9.22848 17.0782 9.30916L16.2446 13.2338C14.4973 13.2877 12.9247 13.8118 11.7823 14.6318C11.4746 14.3379 11.0653 14.1742 10.6398 14.1749C9.72578 14.1749 9 14.9139 9 15.8146C9 16.4866 9.40314 17.051 9.96782 17.3066C9.9404 17.471 9.92691 17.6373 9.92748 17.8039C9.92748 20.3306 12.8711 22.3873 16.5001 22.3873C20.1292 22.3873 23.0728 20.3442 23.0728 17.8039C23.0727 17.6374 23.0592 17.4711 23.0324 17.3066C23.5969 17.051 24 16.473 24 15.8011V15.8011ZM12.7365 16.9703C12.7365 16.3252 13.2606 15.8011 13.906 15.8011C14.5511 15.8011 15.0753 16.3252 15.0753 16.9703C15.0753 17.6155 14.5512 18.1399 13.906 18.1399C13.2607 18.1531 12.7365 17.6155 12.7365 16.9703ZM19.2824 20.0752C18.4759 20.8818 16.9436 20.9356 16.5001 20.9356C16.0431 20.9356 14.5109 20.8682 13.7176 20.0752C13.5969 19.9543 13.5969 19.7661 13.7176 19.6452C13.8387 19.5244 14.0268 19.5244 14.1478 19.6452C14.6587 20.156 15.734 20.3306 16.5001 20.3306C17.2663 20.3306 18.3549 20.1559 18.8522 19.6452C18.9732 19.5244 19.1613 19.5244 19.2824 19.6452C19.3898 19.7661 19.3898 19.9543 19.2824 20.0752ZM19.0672 18.1532C18.422 18.1532 17.8979 17.6291 17.8979 16.9839C17.8979 16.3387 18.422 15.8146 19.0672 15.8146C19.7125 15.8146 20.2366 16.3387 20.2366 16.9839C20.2366 17.6154 19.7125 18.1532 19.0672 18.1532Z" fill="white"/>
</svg>
