<svg width="32" height="32" viewBox="0 0 32 32" fill="none" xmlns="http://www.w3.org/2000/svg">
<circle cx="16" cy="16" r="15" fill="#55ACEE" stroke="#55ACEE" stroke-width="2"/>
<path d="M23.5689 11.7793C23.0413 12.0133 22.4744 12.1714 21.8794 12.2425C22.4868 11.8785 22.9531 11.302 23.1727 10.6151C22.5953 10.9578 21.9636 11.1992 21.3049 11.3289C20.7683 10.7573 20.0038 10.4 19.1577 10.4C17.5332 10.4 16.2161 11.7171 16.2161 13.3415C16.2161 13.572 16.2422 13.7965 16.2923 14.0119C13.8476 13.8892 11.6802 12.7181 10.2293 10.9385C9.9762 11.3729 9.83114 11.8783 9.83114 12.4173C9.83114 13.4378 10.3505 14.3381 11.1397 14.8656C10.6726 14.851 10.2158 14.7248 9.80734 14.4977C9.80717 14.51 9.80717 14.5223 9.80717 14.5347C9.80717 15.9599 10.8211 17.1488 12.1667 17.419C11.7336 17.5368 11.2792 17.554 10.8384 17.4694C11.2126 18.638 12.299 19.4884 13.5861 19.5122C12.5794 20.3011 11.3111 20.7714 9.93296 20.7714C9.6955 20.7714 9.46139 20.7575 9.23126 20.7303C10.533 21.5649 12.0792 22.0519 13.7403 22.0519C19.1509 22.0519 22.1096 17.5697 22.1096 13.6826C22.1096 13.555 22.1068 13.4282 22.101 13.302C22.6769 12.8857 23.174 12.3701 23.5689 11.7793" fill="white"/>
</svg>
